<svg width="16" height="12" viewBox="0 0 16 12" fill="none" xmlns="http://www.w3.org/2000/svg">
<path fill-rule="evenodd" clip-rule="evenodd" d="M7.7842 7.00629C6.7172 7.00629 5.8272 7.73129 5.5802 8.70529L7.8882 10.9743L10.0242 8.87429C9.8442 7.81529 8.9132 7.00629 7.7842 7.00629Z" fill="#272729"/>
<path fill-rule="evenodd" clip-rule="evenodd" d="M7.7842 3.7959C5.82921 3.7959 4.1142 4.7929 3.1272 6.2949L4.5512 7.6929C5.13821 6.5139 6.3582 5.6959 7.7842 5.6959C9.2642 5.6959 10.5342 6.5729 11.0922 7.8259L12.5202 6.4219C11.5482 4.8499 9.79321 3.7959 7.7842 3.7959Z" fill="#272729"/>
<path opacity="0.5" fill-rule="evenodd" clip-rule="evenodd" d="M7.7842 0.405792C4.8792 0.405792 2.3022 1.76579 0.658203 3.86779L2.0902 5.27479C3.3562 3.52479 5.4322 2.37879 7.7842 2.37879C10.1892 2.37879 12.3102 3.57379 13.5672 5.39179L15.0002 3.98479C13.3602 1.81679 10.7432 0.405792 7.7842 0.405792Z" fill="#272729"/>
</svg>
