<svg width="40" height="40" viewBox="0 0 40 40" fill="none" xmlns="http://www.w3.org/2000/svg">
<g clip-path="url(#clip0_1_374)">
<path d="M19.9982 39.9965C31.043 39.9965 39.9965 31.043 39.9965 19.9982C39.9965 8.95351 31.043 0 19.9982 0C8.95351 0 0 8.95351 0 19.9982C0 31.043 8.95351 39.9965 19.9982 39.9965Z" fill="#014299"/>
<path d="M15.6099 20.9578C15.1054 20.9578 14.6962 21.367 14.6962 21.8714V29.0255C14.6962 29.5299 15.1054 29.9392 15.6099 29.9392C16.1143 29.9392 16.5235 29.5299 16.5235 29.0255V21.8714C16.5235 21.367 16.1143 20.9578 15.6099 20.9578Z" fill="white"/>
<path d="M19.9982 20.9578C19.4867 20.9578 19.074 21.3705 19.074 21.882V31.2197C19.074 31.7312 19.4867 32.1439 19.9982 32.1439C20.5098 32.1439 20.9225 31.7312 20.9225 31.2197V21.8785C20.9225 21.3705 20.5098 20.9578 19.9982 20.9578Z" fill="white"/>
<path d="M27.9602 27.8226C27.8438 27.8755 27.7344 27.9213 27.625 27.9566H27.6215C27.4134 28.0236 27.2229 28.0589 27.0465 28.066H27.0253C26.6726 28.0766 26.3762 27.9707 26.1117 27.8014C25.9388 27.6885 25.7907 27.5439 25.6707 27.3675C25.5649 27.2158 25.4838 27.0394 25.4203 26.8348C25.4203 26.8313 25.4167 26.8278 25.4167 26.8242C25.3391 26.5632 25.2968 26.2563 25.2968 25.9106V21.8785C25.2968 21.367 24.8841 20.9542 24.3725 20.9542C23.861 20.9542 23.4483 21.367 23.4483 21.8785V25.9106C23.4483 27.498 24.0268 28.7433 25.0816 29.4241C25.6108 29.7663 26.214 29.9356 26.8595 29.9356C27.4522 29.9356 28.0766 29.791 28.7116 29.5052C29.1772 29.2971 29.3818 28.7503 29.1737 28.2847C28.9726 27.819 28.4223 27.6109 27.9602 27.8226Z" fill="white"/>
<path d="M24.1044 16.1919C24.1044 15.4335 23.4871 14.8161 22.7287 14.8161C21.9702 14.8161 21.3529 15.4335 21.3529 16.1919C21.3529 16.9504 21.9702 17.5677 22.7287 17.5677C23.4871 17.5677 24.1044 16.9504 24.1044 16.1919Z" fill="white"/>
<path d="M17.2714 14.8126C16.5129 14.8126 15.8956 15.4299 15.8956 16.1884C15.8956 16.9468 16.5129 17.5642 17.2714 17.5642C18.0298 17.5642 18.6472 16.9468 18.6472 16.1884C18.6472 15.4299 18.0298 14.8126 17.2714 14.8126Z" fill="white"/>
<path d="M19.9982 7.8596C14.6468 7.8596 10.2902 12.2127 10.2902 17.5677V22.8909C10.2902 23.4059 10.7064 23.8222 11.2215 23.8222C11.7365 23.8222 12.1528 23.4059 12.1528 22.8909V17.5677C12.1528 13.2428 15.6734 9.7222 19.9982 9.7222C24.3231 9.7222 27.8437 13.2428 27.8437 17.5677V22.8909C27.8437 23.4059 28.26 23.8222 28.775 23.8222C29.2901 23.8222 29.7063 23.4059 29.7063 22.8909V17.5677C29.7063 12.2127 25.3532 7.8596 19.9982 7.8596Z" fill="white"/>
</g>
<defs>
<clipPath id="clip0_1_374">
<rect width="40" height="40" fill="white"/>
</clipPath>
</defs>
</svg>
