<svg width="40" height="40" viewBox="0 0 40 40" fill="none" xmlns="http://www.w3.org/2000/svg">
<path d="M40 20C40 8.9543 31.0457 0 20 0C8.9543 0 0 8.9543 0 20C0 31.0457 8.9543 40 20 40C31.0457 40 40 31.0457 40 20Z" fill="#DDED4D"/>
<path d="M7 8H21.534C28.101 8 33.426 13.323 33.426 19.89C33.426 26.458 28.102 31.782 21.534 31.782H7V8Z" fill="url(#paint0_radial_1_399)"/>
<path d="M19.773 24.736C22.4488 24.736 24.618 22.5668 24.618 19.891C24.618 17.2152 22.4488 15.046 19.773 15.046C17.0972 15.046 14.928 17.2152 14.928 19.891C14.928 22.5668 17.0972 24.736 19.773 24.736Z" fill="black"/>
<defs>
<radialGradient id="paint0_radial_1_399" cx="0" cy="0" r="1" gradientUnits="userSpaceOnUse" gradientTransform="translate(19.997 20.087) rotate(88.9419) scale(11.6975 11.9288)">
<stop offset="0.359" stop-color="#E9FF00"/>
<stop offset="0.76" stop-color="#263800"/>
<stop offset="1"/>
</radialGradient>
</defs>
</svg>
