<svg width="17" height="12" viewBox="0 0 17 12" fill="none" xmlns="http://www.w3.org/2000/svg">
<path opacity="0.5" fill-rule="evenodd" clip-rule="evenodd" d="M14.9326 0.406311H15.8516C16.4856 0.406311 16.9996 0.921311 16.9996 1.55531V9.82531C16.9996 10.4593 16.4856 10.9743 15.8516 10.9743H14.9326C14.2976 10.9743 13.7846 10.4593 13.7846 9.82531V1.55531C13.7846 0.921311 14.2976 0.406311 14.9326 0.406311Z" fill="#272729"/>
<path fill-rule="evenodd" clip-rule="evenodd" d="M10.3379 2.70361H11.2569C11.8919 2.70361 12.4049 3.21761 12.4049 3.85261V9.82561C12.4049 10.4596 11.8919 10.9746 11.2569 10.9746H10.3379C9.7029 10.9746 9.1899 10.4596 9.1899 9.82561V3.85261C9.1899 3.21761 9.7029 2.70361 10.3379 2.70361Z" fill="#272729"/>
<path fill-rule="evenodd" clip-rule="evenodd" d="M5.7432 5.00101H6.6622C7.2972 5.00101 7.8102 5.51501 7.8102 6.14901V9.82501C7.8102 10.459 7.2972 10.974 6.6622 10.974H5.7432C5.1082 10.974 4.5952 10.459 4.5952 9.82501V6.14901C4.5952 5.51501 5.1082 5.00101 5.7432 5.00101Z" fill="#272729"/>
<path fill-rule="evenodd" clip-rule="evenodd" d="M1.1484 6.37943H2.0674C2.7024 6.37943 3.2154 6.89343 3.2154 7.52743V9.82543C3.2154 10.4594 2.7024 10.9744 2.0674 10.9744H1.1484C0.514397 10.9744 0.000396729 10.4594 0.000396729 9.82543V7.52743C0.000396729 6.89343 0.514397 6.37943 1.1484 6.37943Z" fill="#272729"/>
</svg>
