<svg width="24" height="24" viewBox="0 0 24 24" fill="none" xmlns="http://www.w3.org/2000/svg">
<path d="M11.4697 17.5303C11.7626 17.8232 12.2374 17.8232 12.5303 17.5303L17.3033 12.7574C17.5962 12.4645 17.5962 11.9896 17.3033 11.6967C17.0104 11.4038 16.5355 11.4038 16.2426 11.6967L12 15.9393L7.75736 11.6967C7.46447 11.4038 6.98959 11.4038 6.6967 11.6967C6.40381 11.9896 6.40381 12.4645 6.6967 12.7574L11.4697 17.5303ZM12.75 4C12.75 3.58579 12.4142 3.25 12 3.25C11.5858 3.25 11.25 3.58579 11.25 4L12.75 4ZM12.75 17L12.75 4L11.25 4L11.25 17L12.75 17Z" fill="white"/>
<line x1="6.75" y1="19.25" x2="17.25" y2="19.25" stroke="white" stroke-width="1.5" stroke-linecap="round"/>
</svg>
